<svg xmlns="http://www.w3.org/2000/svg" viewBox="74.68 93.83 266.05 260.42"><path fill="#1E43FF" d="M338.95985911223494,294.45500937310504C329.8359170066496,309.23857006296623,282.70506631527434,302.4844384441715,261.2117564632352,308.7013641391672C239.71844661119604,314.9182898341629,231.35027742527433,324.34391966653595,210,331.75656354307955C188.64972257472567,339.16920741962315,155.21349781513533,359.0419139738554,133.11009191158922,353.1772273984287C111.00668600804312,347.31254082300205,84.63813044013351,318.7646486569243,77.3795645787234,296.5684440905195C70.1209987173133,274.3722395241147,78.8593156439403,239.34552413906113,89.55869674312856,220.00000000000003C100.25807784231682,200.65447586093893,132.59183866322886,199.70294256036968,141.57585117385293,180.49529925615298C150.559863684477,161.28765595193627,132.0587470025151,118.85056521745764,143.46277180687295,104.75414017469974C154.8667966112308,90.65771513194184,189.30199884984646,93.35145199835706,209.99999999999997,95.91674899960553C230.6980011501535,98.482046000854,249.33715776467776,110.03875433013643,267.650778707794,120.14592218219056C285.96439965091025,130.25309003424468,311.8309539272053,139.91740980896208,319.8817256586975,156.5597561119303C327.9324973901897,173.20210241489855,312.7757201878243,197.0174577898042,315.9554090967472,220C319.1350980056701,242.9825422101958,348.0838012178203,279.67144868324385,338.95985911223494,294.45500937310504" stroke="none" stroke-width="3"/></svg>